<svg width="24" height="24" viewBox="0 0 24 24" fill="none" xmlns="http://www.w3.org/2000/svg">
<path d="M20.1507 14.7154L17.8483 15.8195L17.6353 15.9217L17.4999 16.1153C17.478 16.1467 17.4642 16.1668 17.4531 16.1831C17.4396 16.2028 17.4299 16.217 17.4142 16.2388L17.2786 16.4265L17.2504 16.6563L16.9337 19.2411L15.0069 20.2881L12.7877 19.1398L12.5699 19.0271L12.3251 19.0404C12.2694 19.0435 12.2096 19.0444 12.128 19.0455L11.8816 19.0488L11.6712 19.1772L9.53111 20.4837L7.53928 19.5777L7.04709 17.024L7.00291 16.7947L6.85286 16.6158C6.83984 16.6003 6.82872 16.5871 6.81891 16.5755C6.79377 16.5457 6.77726 16.5261 6.75954 16.5038L6.60955 16.3145L6.38493 16.2257L4.01825 15.2903L3.48295 13.0966L5.16344 11.1111L5.31056 10.9373L5.3573 10.7144C5.36073 10.698 5.36454 10.6808 5.36961 10.6579L5.36999 10.6561C5.37464 10.6351 5.38047 10.6088 5.38615 10.5817L5.43284 10.3591L5.36816 10.1411L4.62143 7.6236L5.97531 5.85347L8.47526 5.98096L8.7222 5.99355L8.94091 5.87822C9.00212 5.84594 9.05688 5.81761 9.10858 5.79246L9.32152 5.68885L9.4559 5.49386L10.8992 3.39945H13.0718L14.408 5.33898L14.7175 5.78819L15.2589 5.72167L17.5556 5.43948L19.0255 7.10739L18.4535 9.66917L18.402 9.89995L18.4705 10.1262C18.4762 10.1448 18.4792 10.1562 18.4842 10.1747C18.4882 10.1895 18.4934 10.2089 18.5022 10.2403L18.564 10.4613L18.7241 10.6258L20.5351 12.486L20.1507 14.7154Z" stroke="#0E0C0C" stroke-width="1.8"/>
<path d="M9.5 12H14.5" stroke="black" stroke-width="1.8"/>
</svg>
